<svg xmlns="http://www.w3.org/2000/svg" xmlns:xlink="http://www.w3.org/1999/xlink" version="1.1" x="0px" y="0px" viewBox="0 0 100 125" enable-background="new 0 0 100 100" xml:space="preserve"><g><g><path d="M76.4,61.4c-0.1-0.5-0.3-1.7-1.1-2.6c-0.1-0.1-0.2-0.2-0.3-0.3L61.4,47.3l-3.2-16.2c0,0,0,0,0,0c0,0,0,0,0,0l-0.7-2.8    c0,0,0,0,0,0c-0.3-1.5-4.3-2.1-6.4-2.1s-6.1,0.6-6.4,2.1c0,0,0,0,0,0L44,31.1c0,0,0,0,0,0c0,0,0,0,0,0l-3.2,16.2L27.1,58.5    c-0.1,0.1-0.3,0.2-0.3,0.3c-0.9,1.2-1.5,3.1-1.5,3.1c0,0.2,0,0.3,0,0.5c-0.1,0.5-0.1,1.1,0.1,1.7c0.3,1.2,0.9,2.6,1.9,3.9    c1.6,2.2,3.6,3.6,5.2,3.6c0.3,0,0.7-0.1,0.9-0.2c0.2,0,0.4,0,0.7,0c0.5,0,1.1,0,1.8-0.2c0,0,0.1,0,0.1,0c0,0,0,0,0,0l0,0    c0.1,0,0.1,0,0.2-0.1l10.1-4.3c0.9,1.1,3.8,1.2,4.8,1.2s3.9-0.1,4.8-1.2L66,71.1c0.1,0,0.1,0.1,0.2,0.1l0,0c0,0,0,0,0,0    c0,0,0.1,0,0.1,0c1.1,0.3,2.2,0.3,2.6,0.3c0.3,0.1,0.6,0.2,1,0.2c1.5,0,3.6-1.4,5.2-3.6C77,65.5,77.6,62.7,76.4,61.4z M67.8,68.3    c-0.1,0.7-0.2,1.2-0.1,1.7c-0.3,0-0.7-0.1-1-0.2c0,0,0,0,0,0l-0.1,0c-0.4-0.5-0.3-3.7,1.8-6.5c1.6-2.1,3.8-3.4,5.2-3.6    c0.3,0,0.4,0,0.5,0l0.1,0.1c0.2,0.3,0.4,0.7,0.5,1c-1.5,0.1-3.5,1.5-5,3.6C68.8,65.6,68.1,67,67.8,68.3z M51.8,63.6V53    c0.6-0.7,3.2-3.3,8.7-4.5l12.1,9.9c-1.7,0.5-3.7,1.9-5.3,4c-1.6,2.2-2.3,4.9-2.2,6.7L51.8,63.6z M37.1,69.1    c0.1-1.8-0.6-4.5-2.2-6.7c-1.6-2.1-3.7-3.5-5.3-4l12.1-9.9c6.4,1.4,8.3,3.8,8.7,4.4v10.7L37.1,69.1z M35.5,69.8    c-0.3,0.1-0.7,0.1-1,0.1c0.3-1.5-0.4-3.6-1.9-5.8c-1.6-2.2-3.6-3.6-5.1-3.6c0.2-0.3,0.3-0.6,0.5-0.8l0.1-0.1c0.1,0,0.2,0,0.5,0    c1.3,0.2,3.6,1.5,5.2,3.6C35.8,66.1,35.9,69.4,35.5,69.8L35.5,69.8z M56.6,31.1c-0.6,0.4-2.7,1.1-5.6,1.1s-5-0.7-5.6-1.1l0.3-1.3    c1.4,0.7,3.8,1,5.2,1s3.8-0.3,5.2-1L56.6,31.1z M51.1,27.7c2.1,0,3.7,0.4,4.5,0.8c-0.8,0.3-2.4,0.8-4.5,0.8s-3.7-0.4-4.5-0.8    C47.4,28.2,49,27.7,51.1,27.7z M45.2,32.6c1.6,0.7,4.2,1,5.9,1s4.3-0.3,5.9-1l2.8,14.5c-4.8,1.1-7.5,3.3-8.7,4.4    c-1-1.1-3.4-3.1-8.8-4.4L45.2,32.6z M28.5,67.2c-0.8-1.1-1.4-2.3-1.6-3.4c-0.2-0.8-0.1-1.4,0.2-1.6c0.1-0.1,0.2-0.1,0.4-0.1    c0.9,0,2.5,1,4,3c1.8,2.4,2.1,4.6,1.5,5c-0.1,0.1-0.2,0.1-0.4,0.1C31.6,70.2,29.9,69.1,28.5,67.2z M51.1,66.5    c-1.4,0-2.5-0.2-3.1-0.4l3.1-1.3l3.1,1.3C53.5,66.4,52.5,66.5,51.1,66.5z M73.8,67.3c-1.7,2.3-3.8,3.3-4.3,2.9    c-0.3-0.2-0.3-0.8-0.2-1.6c0.2-1,0.8-2.2,1.6-3.4c1.4-1.9,3.1-3,4-3c0.2,0,0.3,0,0.4,0.1C75.9,62.8,75.6,64.9,73.8,67.3z"/><path d="M45.6,44.6l0.9-5.2c0.1-0.4-0.2-0.8-0.6-0.9c-0.4-0.1-0.8,0.2-0.9,0.6L44,45c0,0.2,0,0.4,0.1,0.6s0.3,0.3,0.5,0.3    c0,0,2.5,0.2,3.5,1.7c0.1,0.2,0.4,0.3,0.6,0.3c0.2,0,0.3,0,0.4-0.1c0.3-0.2,0.4-0.7,0.2-1C48.4,45.3,46.6,44.8,45.6,44.6z"/><path d="M46.2,37.5c0.2,0,0.4-0.1,0.5-0.2c0.1-0.1,0.2-0.3,0.2-0.5c0-0.2-0.1-0.4-0.2-0.5c-0.3-0.3-0.8-0.3-1.1,0    c-0.1,0.1-0.2,0.3-0.2,0.5c0,0.2,0.1,0.4,0.2,0.5C45.8,37.5,46,37.5,46.2,37.5z"/></g></g><text x="0" y="115" fill="#000000" font-size="5px" font-weight="bold" font-family="'Helvetica Neue', Helvetica, Arial-Unicode, Arial, Sans-serif">Created by ILKEBRS</text><text x="0" y="120" fill="#000000" font-size="5px" font-weight="bold" font-family="'Helvetica Neue', Helvetica, Arial-Unicode, Arial, Sans-serif">from the Noun Project</text></svg>